Coordinates
version=1
nRows=9
nColumns=36
inDegrees=yes

Units are S.I. units (second, meters, Newtons, ...)
If the header above contains a line with 'inDegrees', this indicates whether rotational values are in degrees (yes) or radians (no).

endheader
time	pelvis_tilt	pelvis_list	pelvis_rotation	pelvis_tx	pelvis_ty	pelvis_tz	hip_flexion_r	hip_adduction_r	hip_rotation_r	knee_angle_r	knee_angle_r_beta	ankle_angle_r	subtalar_angle_r	mtp_angle_r	hip_flexion_l	hip_adduction_l	hip_rotation_l	knee_angle_l	knee_angle_l_beta	ankle_angle_l	subtalar_angle_l	mtp_angle_l	lumbar_extension	lumbar_bending	lumbar_rotation	arm_flex_r	arm_add_r	arm_rot_r	elbow_flex_r	pro_sup_r	arm_flex_l	arm_add_l	arm_rot_l	elbow_flex_l	pro_sup_l
      8.87000000	    -10.36562139	      0.69376842	     -0.52576816	     -0.24808826	      0.93744013	     -0.59491006	     26.66573748	     -2.37666121	      2.83834648	     24.96316451	      0.43568941	      9.65674294	     -4.92089635	     -7.49999987	     27.17669075	     -3.39427822	     -1.24094862	     25.09552456	      0.43799953	      7.19247003	     -4.35046889	     -7.49999987	    -15.01173501	     -0.80982695	     -0.48573133	      7.15983464	     -8.46462892	      1.27526777	    114.45158466	    111.19236333	      8.71847516	     -5.74228275	     -1.33578738	    113.72483956	    109.20681652
      8.88000000	    -11.16114398	      0.65566148	     -0.40423992	     -0.25467987	      0.93320773	     -0.59451124	     28.67001901	     -2.35699749	      2.68765289	     26.32156286	      0.45939794	     10.03174289	     -5.04677487	     -7.49999987	     29.24982521	     -3.55346188	     -1.36901157	     26.45944880	      0.46180450	      7.50050299	     -4.26308453	     -7.49999987	    -15.83633706	     -0.73605547	     -0.60075574	      8.29504470	     -8.36518431	      1.14170386	    114.99672723	    111.17988251	      9.68725048	     -5.89946146	     -1.39031694	    114.32463348	    109.21178266
      8.89000000	    -12.04256615	      0.63260322	     -0.29042642	     -0.26138925	      0.92849219	     -0.59413603	     30.79108519	     -2.36253533	      2.58197353	     27.70924406	      0.48361754	     10.51195985	     -5.06364285	     -7.49999987	     31.48982862	     -3.75359902	     -1.66533361	     27.95693353	      0.48794054	      7.98505405	     -3.86021243	     -7.49999987	    -16.54849529	     -0.67397953	     -0.76525534	      9.44264224	     -8.25971550	      1.08265642	    115.47238448	    111.14482633	     10.58273392	     -6.17035805	     -1.46004457	    114.95908702	    109.15979601
      8.90000000	    -12.96518741	      0.58749744	     -0.13105278	     -0.26806824	      0.92339870	     -0.59391305	     32.94487377	     -2.37556284	      2.51481490	     29.09794596	      0.50785496	     11.02981981	     -5.06866912	     -7.49999987	     33.79411727	     -3.99117934	     -2.02896697	     29.48341150	      0.51458261	      8.76725593	     -3.07151406	     -7.49999987	    -17.18005793	     -0.52661803	     -0.99897038	     10.55339946	     -8.21792318	      1.14889211	    115.85181823	    111.05726743	     11.42402000	     -6.28888950	     -1.62950070	    115.51681839	    109.01201478
      8.91000000	    -13.89408068	      0.55439817	     -0.03880176	     -0.27475269	      0.91802588	     -0.59356447	     35.12272711	     -2.37603094	      2.40053490	     30.44968250	      0.53144722	     11.42343407	     -5.35401103	     -7.49999987	     36.04181792	     -4.18636070	     -2.14266331	     30.91704286	      0.53960419	      9.28527760	     -2.82409389	     -7.49999987	    -17.82669707	     -0.42909529	     -1.07686690	     11.61900895	     -8.22623067	      1.13053647	    116.40345605	    111.01739658	     12.29316145	     -6.23774831	     -1.76486604	    116.01323481	    108.96946746
      8.92000000	    -14.78038649	      0.51911534	      0.13070114	     -0.28144935	      0.91248697	     -0.59336416	     37.31545926	     -2.43008808	      2.19632172	     31.93246286	      0.55732662	     11.75284173	     -5.65831773	     -7.49999987	     38.25370225	     -4.30719596	     -2.21983270	     32.31540986	      0.56401030	      9.69517451	     -2.85299579	     -7.49999987	    -18.52554125	     -0.27803059	     -1.17407157	     12.69200029	     -8.17384777	      0.99884843	    116.96978837	    111.01200620	     13.21901207	     -6.04322061	     -1.90421936	    116.39938782	    108.97895076
      8.93000000	    -16.00284299	      0.49256041	      0.32302801	     -0.28834855	      0.90609336	     -0.59319993	     39.95389776	     -2.50181137	      2.08785389	     33.53285399	      0.58525871	     12.13449504	     -5.78196749	     -7.49999987	     40.87610646	     -4.34113034	     -2.16085317	     33.75613086	      0.58915563	     10.18654426	     -2.78356755	     -7.49999987	    -18.79297837	     -0.11462529	     -1.24736734	     13.69333084	     -8.04968649	      0.80377885	    117.48464930	    110.98941379	     14.01921504	     -5.80422611	     -2.05984637	    116.70734833	    108.99146756
      8.94000000	    -17.07921080	      0.46348588	      0.50365167	     -0.29517410	      0.89976755	     -0.59298596	     42.48007001	     -2.58255591	      1.94887297	     35.21166131	      0.61455943	     12.48374227	     -5.93393382	     -7.49999987	     43.35365218	     -4.40235612	     -2.21571417	     35.21021520	      0.61453419	     10.53563903	     -2.76015589	     -7.49999987	    -19.24966863	      0.04099711	     -1.32219532	     14.72739847	     -7.95664034	      0.61430119	    117.97852130	    110.97414080	     14.84566052	     -5.66816671	     -2.18736242	    117.04277657	    109.01388637
      8.95000000	    -17.96017540	      0.42116842	      0.66861222	     -0.30188461	      0.89358182	     -0.59276348	     44.79670421	     -2.64259361	      1.83665677	     36.90454518	      0.64410582	     12.74818952	     -6.22995208	     -7.49999987	     45.63831228	     -4.49547326	     -2.29475441	     36.69630781	      0.64047139	     10.73241763	     -2.82767810	     -7.49999987	    -19.96710187	      0.18536560	     -1.42216274	     15.82553935	     -7.88537296	      0.46454973	    118.44427295	    110.98031768	     15.70741691	     -5.69953242	     -2.24969639	    117.44784947	    109.05111377
